<svg xmlns="http://www.w3.org/2000/svg" viewBox="0 0 800 180" font-family="system-ui, sans-serif">
  <defs>
    <filter id="sh"><feDropShadow dx="1" dy="2" stdDeviation="2" flood-opacity="0.12"/></filter>
  </defs>
  <rect width="800" height="180" fill="#FAFBFC" rx="8"/>
  <text x="30" y="28" font-size="14" fill="#333" font-weight="bold">jainslee-telemetry-vertx/</text>
  <line x1="35" y1="38" x2="35" y2="60" stroke="#555" stroke-width="1.2"/>
  <line x1="35" y1="60" x2="70" y2="60" stroke="#555" stroke-width="1.2"/>
  <line x1="70" y1="60" x2="70" y2="75" stroke="#555" stroke-width="1.2"/>
  <polygon points="64,73 70,87 76,73" fill="#E65100"/>
  <text x="82" y="65" font-size="12" fill="#555">src/main/resources/webroot/telemetry/</text>
  
  <line x1="100" y1="88" x2="100" y2="105" stroke="#555" stroke-width="1"/>
  <line x1="100" y1="105" x2="280" y2="105" stroke="#555" stroke-width="1"/>
  
  <line x1="100" y1="105" x2="100" y2="118" stroke="#555" stroke-width="1"/>
  <polygon points="94,116 100,130 106,116" fill="#E65100"/>
  <rect x="110" y="125" width="280" height="28" rx="6" fill="#E3F2FD" stroke="#1E88E5" stroke-width="1" filter="url(#sh)"/>
  <text x="250" y="144" text-anchor="middle" font-size="11" fill="#1565C0" font-weight="bold">index.html  ← complete dashboard (HTML + CSS + SVG)</text>

  <line x1="280" y1="105" x2="280" y2="118" stroke="#555" stroke-width="1"/>
  <polygon points="274,116 280,130 286,116" fill="#E65100"/>
  <rect x="290" y="125" width="300" height="28" rx="6" fill="#E8F5E9" stroke="#43A047" stroke-width="1" filter="url(#sh)"/>
  <text x="440" y="144" text-anchor="middle" font-size="11" fill="#2E7D32" font-weight="bold">telemetry.js  ← fetch loop, rendering, event handlers</text>
</svg>